<svg width="1387" height="378" viewBox="0 0 1387 378" fill="none" xmlns="http://www.w3.org/2000/svg">
<path d="M485.999 214.38V163.62H360.216L366.659 138.78C381.779 81.54 411.479 54 465.479 54C477.359 54 490.319 56.16 504.899 61.02L531.899 13.5C512.459 5.4 488.159 0 466.559 0C385.559 0 332.639 39.96 311.039 124.74L300.951 163.62H161.999V214.38H287.781L281.339 239.22C266.219 296.46 235.979 324 182.519 324C170.099 324 157.139 321.84 143.099 316.98L115.559 364.5C135.539 372.6 159.839 378 181.439 378C262.439 378 314.279 338.04 336.959 253.26L347.046 214.38H485.999Z" fill="#474AEE"/>
<path d="M54 189C54 114.48 114.48 54 189 54C204.66 54 219.78 56.7 234.36 62.1L261.9 14.58C238.68 4.86 213.84 0 189 0C84.78 0 0 84.78 0 189C0 247.86 28.08 303.48 73.98 339.12L101.52 291.6C71.82 266.22 54 228.96 54 189Z" fill="#474AEE"/>
<path d="M573.48 38.8799L546.48 86.3999C576.18 111.78 594 149.04 594 189C594 263.52 533.52 324 459 324C443.34 324 428.22 321.3 413.64 315.9L386.1 363.42C409.32 373.14 434.16 378 459 378C563.22 378 648 293.22 648 189C648 130.14 619.92 74.5199 573.48 38.8799Z" fill="#474AEE"/>
<path d="M755.92 11.1189H983.228V63.5583H811.923V162.718H983.228V215.919H811.923V367.519H755.92V11.1189Z" fill="#474AEE"/>
<path d="M1029.74 367.519V108.972H1083.71V367.519H1029.74Z" fill="#474AEE"/>
<path d="M1138.18 108.972H1190.62V163.129C1200.8 132.068 1224.22 108.972 1260.88 108.972H1282.8V161.412H1261.9C1212 161.412 1192.15 192.98 1192.15 243.384V367.519H1138.18L1138.18 108.972Z" fill="#474AEE"/>
<path d="M1322.84 367.519V108.972H1376.81V367.519H1322.84Z" fill="#474AEE"/>
<path d="M1056.72 72.36C1076.7 72.36 1092.9 56.1617 1092.9 36.18C1092.9 16.1983 1076.7 0 1056.72 0C1036.74 0 1020.54 16.1983 1020.54 36.18C1020.54 56.1617 1036.74 72.36 1056.72 72.36Z" fill="#474AEE"/>
<path d="M1349.82 72.36C1369.8 72.36 1386 56.1617 1386 36.18C1386 16.1983 1369.8 0 1349.82 0C1329.84 0 1313.64 16.1983 1313.64 36.18C1313.64 56.1617 1329.84 72.36 1349.82 72.36Z" fill="#474AEE"/>
</svg>
