<?xml version="1.0" encoding="utf-8"?>
<!-- Generator: Adobe Illustrator 26.1.0, SVG Export Plug-In . SVG Version: 6.00 Build 0)  -->
<svg version="1.1" id="Layer_1" xmlns="http://www.w3.org/2000/svg" xmlns:xlink="http://www.w3.org/1999/xlink" x="0px" y="0px"
	 viewBox="0 0 1396.58 608.34" style="enable-background:new 0 0 1396.58 608.34;" xml:space="preserve">
<style type="text/css">
	.st0{fill:#FFFFFF;}
</style>
<g>
	<g>
		<path class="st0" d="M496.58,444.72v-50.76H370.8l6.44-24.84c15.12-57.24,44.82-84.78,98.82-84.78c11.88,0,24.84,2.16,39.42,7.02
			l27-47.52c-19.44-8.1-43.74-13.5-65.34-13.5c-81,0-133.92,39.96-155.52,124.74l-10.09,38.88H172.58v50.76h125.78l-6.44,24.84
			c-15.12,57.24-45.36,84.78-98.82,84.78c-12.42,0-25.38-2.16-39.42-7.02l-27.54,47.52c19.98,8.1,44.28,13.5,65.88,13.5
			c81,0,132.84-39.96,155.52-124.74l10.09-38.88H496.58z"/>
		<path class="st0" d="M64.58,419.34c0-74.52,60.48-135,135-135c15.66,0,30.78,2.7,45.36,8.1l27.54-47.52
			c-23.22-9.72-48.06-14.58-72.9-14.58c-104.22,0-189,84.78-189,189c0,58.86,28.08,114.48,73.98,150.12l27.54-47.52
			C82.4,496.56,64.58,459.3,64.58,419.34z"/>
		<path class="st0" d="M584.06,269.22l-27,47.52c29.7,25.38,47.52,62.64,47.52,102.6c0,74.52-60.48,135-135,135
			c-15.66,0-30.78-2.7-45.36-8.1l-27.54,47.52c23.22,9.72,48.06,14.58,72.9,14.58c104.22,0,189-84.78,189-189
			C658.58,360.48,630.5,304.86,584.06,269.22z"/>
	</g>
	<g>
		<path class="st0" d="M766.5,241.46h227.31v52.44H822.5v99.16h171.31v53.2H822.5v151.6h-56V241.46z"/>
		<path class="st0" d="M1040.32,597.86V339.32h53.97v258.55H1040.32z"/>
		<path class="st0" d="M1148.76,339.32h52.44v54.16c10.18-31.06,33.6-54.16,70.26-54.16h21.92v52.44h-20.9
			c-49.9,0-69.75,31.57-69.75,81.97v124.14h-53.97V339.32z"/>
		<path class="st0" d="M1333.42,597.86V339.32h53.97v258.55H1333.42z"/>
		<path class="st0" d="M1067.3,302.7c19.98,0,36.18-16.2,36.18-36.18s-16.2-36.18-36.18-36.18s-36.18,16.2-36.18,36.18
			S1047.32,302.7,1067.3,302.7z"/>
		<path class="st0" d="M1360.4,302.7c19.98,0,36.18-16.2,36.18-36.18s-16.2-36.18-36.18-36.18c-19.98,0-36.18,16.2-36.18,36.18
			S1340.42,302.7,1360.4,302.7z"/>
	</g>
</g>
<g>
	<path class="st0" d="M41.14,114.57c-8.98,0-17.42-3.62-23.45-13v37.12h-6.97V51.05h6.97v12.06c5.23-8.84,13.8-13.13,23.18-13.13
		c19.16,0,30.82,14.07,30.82,32.43C71.69,100.9,59.63,114.57,41.14,114.57z M40.87,56.01c-15.14,0-23.45,11.79-23.45,26.4
		c0,14.2,8.31,25.86,23.45,25.86c15.01,0,23.45-11.39,23.45-25.86C64.32,68.07,55.88,56.01,40.87,56.01z"/>
	<path class="st0" d="M114.17,114.57c-17.69,0-31.76-13.4-31.76-32.16s14.07-32.43,31.76-32.43c17.82,0,31.89,13.67,31.89,32.43
		S131.99,114.57,114.17,114.57z M114.17,56.01c-15.01,0-24.39,11.66-24.39,26.13c0,14.34,9.38,26.13,24.39,26.13
		c15.14,0,24.52-11.79,24.52-26.13C138.69,67.67,129.31,56.01,114.17,56.01z"/>
	<path class="st0" d="M223.11,113.23h-6.03l-19.43-52.26l-19.43,52.26h-6.03l-20.77-62.18h7.37l16.75,52.13l19.43-52.26h5.36
		l19.43,52.26l16.75-52.13h7.37L223.11,113.23z"/>
	<path class="st0" d="M309.13,83.75h-50.52c0.67,14.74,8.98,24.52,23.05,24.52s21.84-8.04,21.84-8.04l3.35,4.96
		c0,0-7.77,9.38-25.86,9.38s-29.75-13.4-29.75-32.43c0-19.16,13.67-32.16,30.15-32.16c16.35,0,28.14,12.33,28.14,29.08
		C309.53,81.07,309.13,83.75,309.13,83.75z M280.99,56.01c-15.41,0-21.71,13-22.11,21.71h43.55
		C302.43,69.68,296.4,56.01,280.99,56.01z"/>
	<path class="st0" d="M346.38,56.68c-11.93,0-15.14,13.53-15.14,23.05v33.5h-6.97V51.05h6.97v11.66
		c2.28-8.44,9.11-12.73,15.81-12.73c4.02,0,6.7,0.94,6.7,0.94l-0.67,6.83C351.6,57.21,349.73,56.68,346.38,56.68z"/>
	<path class="st0" d="M417,83.75h-50.52c0.67,14.74,8.98,24.52,23.05,24.52s21.84-8.04,21.84-8.04l3.35,4.96
		c0,0-7.77,9.38-25.86,9.38s-29.75-13.4-29.75-32.43c0-19.16,13.67-32.16,30.15-32.16c16.35,0,28.14,12.33,28.14,29.08
		C417.4,81.07,417,83.75,417,83.75z M388.85,56.01c-15.41,0-21.71,13-22.11,21.71h43.55C410.29,69.68,404.26,56.01,388.85,56.01z"/>
	<path class="st0" d="M458.66,49.98c8.98,0,17.29,3.62,23.32,12.73V20.77h7.1v92.46h-7.1V101.7c-5.23,8.84-13.67,12.86-23.05,12.86
		c-18.76,0-30.82-14.07-30.82-32.43C428.11,63.65,440.17,49.98,458.66,49.98z M458.93,108.27c15.14,0,23.45-11.79,23.45-26.13
		c0-14.47-8.31-26.13-23.45-26.13c-15.01,0-23.45,11.66-23.45,26.13C435.48,96.48,443.92,108.27,458.93,108.27z"/>
	<path class="st0" d="M567.47,114.57c-9.38,0-17.96-4.02-23.18-13.13v11.79h-6.97V20.77h6.97v42.21c6.03-9.38,14.47-13,23.45-13
		c18.49,0,30.55,13.67,30.55,32.16C598.29,100.5,586.23,114.57,567.47,114.57z M567.47,56.01c-15.14,0-23.45,11.66-23.45,26.13
		c0,14.34,8.31,26.13,23.45,26.13c15.01,0,23.45-11.79,23.45-26.13C590.92,67.67,582.48,56.01,567.47,56.01z"/>
	<path class="st0" d="M627.1,127.7c-4.29,10.32-9.65,11.66-13.94,11.66s-7.5-1.61-7.5-1.61l1.34-6.7c0,0,2.41,1.34,6.16,1.34
		s6.3-1.34,9.25-9.78l3.62-10.32l-25.06-61.24h7.37l21.44,54.14l21.44-54.14h7.37L627.1,127.7z"/>
</g>
</svg>
