<?xml version="1.0" encoding="utf-8"?>
<!-- Generator: Adobe Illustrator 25.2.1, SVG Export Plug-In . SVG Version: 6.00 Build 0)  -->
<svg version="1.1" id="Layer_1" xmlns="http://www.w3.org/2000/svg" xmlns:xlink="http://www.w3.org/1999/xlink" x="0px" y="0px"
	 viewBox="0 0 1337 1600" style="enable-background:new 0 0 1337 1600;" xml:space="preserve">
<style type="text/css">
	.st0{fill:#FFAF3C;}
</style>
<path id="M42_VANIR" class="st0" d="M544.55,942.45L544.55,942.45l-53.05,103.89c-2.33,4.56-8.78,4.79-11.4,0.38
	c-146.46-246.03-287.24-688.57-326.23-816c-1.92-6.29,6.47-10.4,10.25-5.01c67.05,95.6,280.99,390.32,427.66,474.91
	c8.61,4.97,15.21,11.01,20.18,20.63c63.21,123.07,126.69,245.92,190.36,368.7c4.73,9.11,7.05,16.26,1.6,26.67l-138.08,264.8
	c-1.88,3.61-7.05,3.57-8.88-0.06l-139.04-275.76c-0.92-1.83-0.93-3.98-0.02-5.82l48.65-98.55c2.37-4.81,9.21-4.85,11.65-0.07
	l76.56,150.24c2.37,4.66,8.99,4.77,11.51,0.19l24.11-43.75c1.05-1.9,1.08-4.19,0.09-6.12L528.84,786.84
	c-0.65-1.26-1.69-2.28-2.96-2.89l-64.53-31.16c-5.62-2.71-11.47,3.26-8.64,8.82L544.55,942.45 M696.74,757.94l20.46-42.42
	c1.95-4.04,4.73-7.63,8.15-10.53l0.04-0.04C862.93,587.68,1056.79,408,1172.81,233.14c3.56-5.37,11.92-1.71,10.43,4.56
	c-73.05,306.97-244.94,618.63-344.15,810.67c-0.98,1.9-3.7,1.89-4.68-0.01c-18.52-35.91-35.07-68.71-52.45-100.94
	c-5.05-9.37-1.62-15.62,2.26-23.09l82.94-161.64c2.79-5.43-2.75-11.37-8.36-8.97l-62.43,26.73c-1.45,0.62-2.62,1.74-3.31,3.17
	l-40.32,83.81c-2.33,4.85-9.2,4.94-11.66,0.16l-44.02-85.4C693.15,774.61,693.03,765.62,696.74,757.94z"/>
</svg>
